<svg xmlns="http://www.w3.org/2000/svg" viewBox="0 0 797.92 941.04"><defs><style>.cls-1{fill:#e51010;}.cls-2,.cls-3{fill:#fff;stroke-miterlimit:10;}.cls-2{stroke:#700005;}.cls-3{stroke:#7c0a11;}</style></defs><g id="Camada_1" data-name="Camada 1"><path class="cls-1" d="M1429.66,290.36c-40.89-2.86-125.72-8.77-220.1-15.23,3.72,0,6.93,0,8.69-.12,6.35-.39,12-3.32,18.76-4.69s23.91-9.28,30.58-12,17.62-10.87,22.09-22.86c3.39-9.12,3.71-35.47.88-28.14s-20.73,24.28-40.85,28.2c-14.44,2.82-33.24,10.49-45.07,15.73,9.15-8.51,14.53-16.36,21.3-26.26,17.71-25.93,38-59.76,32.69-98.53-3.38-24.88-22.84-48.14-43.78-56.93-32.44-13.62-78.22-14.74-112,10-14.65,10.77-28.4,31-36.68,48.1a163.59,163.59,0,0,0-11.42,33.44,158.72,158.72,0,0,0-10.28-12.67c-10.52-11.54-14.23-20.23-26.4-27.51-37.45-22.4-88.91-25.61-114.73-2.08-13.62,12.42-25.76,27.84-26.65,47.41-1,22.53,10,49.47,26.77,73.55a126.16,126.16,0,0,0-18.83-6c-18.11-3.92-34.2-20.88-36.75-28.21s-2.26,19,.79,28.14A40.81,40.81,0,0,0,862,252.18l-11.26-.66c-35.81-2.09-123.17-6.25-169.42-8.42a24.93,24.93,0,0,0-26,28.09L748,979.27a25.06,25.06,0,0,0,27,21.62l592.61-48.2a25,25,0,0,0,22.94-22.32l62.37-612.66A25,25,0,0,0,1429.66,290.36Zm-320.28-115c1.29-5.45,13.29-31.49,14.8-37.12,11.42-42.7,36.34-57.1,48.28-52.43,6.59,2.58,15.15,10.84,21.8,22.19,5.32,9.08,3.63,21.95,3.37,30.37-.53,17.46-8.23,35.67-14.79,54-4.81,13.41-17.21,24.82-24.6,37-14,23.05-30.73,37.6-41.23,39.47l-5.76-.39c-4.94-2.56-3.69-15.2-5.41-26.37C1103.17,224.68,1103.34,200.85,1109.38,175.33Zm-163,38.28c-3.35-10.3-7.9-26.77-9-35.82-2.38-20.35,15-52.08,23.88-49.7,7.26,1.94,13.82,12.71,23.49,27.9a151.89,151.89,0,0,1,15.7,32.7c5.58,17.13,8,34.56,7.27,47-.55,9.29,3.39,21.14-.41,25.8l-18.12-1.19C974.23,254,954.51,238.56,946.38,213.61Z" transform="translate(-655.07 -59.93)"/></g><g id="Camada_5" data-name="Camada 5"><path class="cls-2" d="M818,530.6a8.43,8.43,0,0,0,8.7,8.86,8.31,8.31,0,1,0-8.7-8.86Z" transform="translate(-655.07 -59.93)"/><path class="cls-2" d="M824.5,566a7.88,7.88,0,0,0,6.53-8.86,7.65,7.65,0,0,0-15.24,1.11A7.86,7.86,0,0,0,824.5,566Z" transform="translate(-655.07 -59.93)"/><path class="cls-2" d="M846.26,316.86c8.89-.82,19.58-1.92,30.47-8.86,5.1-3.26,8.48-7.34,15.23-15.51,1.37-1.65,3.5-4.34,3.26-7.75,0-.41-.37-4.55-3.26-5.54-2.15-.73-5,.55-6.53,3.33A48.92,48.92,0,0,1,869.11,298c-9,5.15-17.29,5.79-28.29,6.65a108.1,108.1,0,0,1-26.12-1.11c-10.84-1.86-10.88-3.68-21.76-5.54a105.32,105.32,0,0,0-52.23,4.43c-5,1.76-1.53,1-14.14,6.65-2.38,1.06-6.26,2.77-8.71,6.64-1.73,2.73-1.21,4.13-1.09,4.43.71,1.7,2.89,2.14,3.27,2.21h3.26A74.32,74.32,0,0,1,744,311.32c14.61-5,27.15-4.07,35.9-3.32,13.72,1.17,13.35,3.6,32.65,6.64C824.83,316.58,834,318,846.26,316.86Z" transform="translate(-655.07 -59.93)"/><path class="cls-2" d="M1370,710.55c-3.16-4.91-8.17-7.54-10.89-8.86a77.37,77.37,0,0,0-20.67-6.64c-6.27-1-14.55-2.34-25,0a61.74,61.74,0,0,0-18.49,7.75c-4.75,2.94-14.82,9.34-21.77,22.15a49.93,49.93,0,0,0-6.52,23.26c-.11,5.08-1.12,9.75,1.08,11.07.91.55,2.64.76,3.27,0s.13-1.78,0-2.21c-.84-2.7-.2-5.86,1.09-12.18a41.94,41.94,0,0,1,10.88-21,52.14,52.14,0,0,1,13-10,66.83,66.83,0,0,1,15.24-6.65,61.55,61.55,0,0,1,13-2.21,50.85,50.85,0,0,1,16.33,1.1,34,34,0,0,1,10.88,4.43,28.63,28.63,0,0,1,5.44,4.43c1.47,1.6,1.54,2.58,3.26,4.43,1.43,1.54,2.54,2.73,4.35,3.33.44.14,4.39,1.37,6.53-1.11,1.16-1.33,1.12-3.08,1.09-4.43A12.86,12.86,0,0,0,1370,710.55Z" transform="translate(-655.07 -59.93)"/><path class="cls-2" d="M1241.06,576.49a4.63,4.63,0,0,0-3.27-1.1,7.62,7.62,0,0,0-4.35,1.1,46.35,46.35,0,0,0-1.09,15.51c.38,3.74.83,7.73,3.27,12.18a26.75,26.75,0,0,0,6.53,7.75c5.24,4.28,10.58,5.36,17.41,6.65,4.73.89,8.32,1,18.49,1.11,7,.06,10.6,0,21.77,0,9.42,0,14.14,0,14.14,0a4.46,4.46,0,0,0,3.27,0,4.84,4.84,0,0,0,2.17-3.33,5.54,5.54,0,0,0-1.09-4.43c-1.56-1.94-4.22-2.14-5.44-2.21a249.55,249.55,0,0,0-27.2,0c-9,0-8.07-.53-15.23,0-4.73.34-7.53.88-12,0a28,28,0,0,1-8.71-3.32,21.16,21.16,0,0,1-5.44-4.43,13.67,13.67,0,0,1-2.17-3.33c-.52-1.14-.89-2.45-1.09-6.64a52.91,52.91,0,0,1,0-8.86C1241.45,579.36,1242.15,577.71,1241.06,576.49Z" transform="translate(-655.07 -59.93)"/><path class="cls-2" d="M1342.56,921.45c-6.1-.1-9.16-.16-12,0a55.55,55.55,0,0,1-7.62,0,42.62,42.62,0,0,1-13.06-3.32,49.7,49.7,0,0,1-10.88-6.64c-5.73-4.27-8.6-6.41-10.88-10-2.66-4.18-3.13-7.64-6.53-8.86a6.24,6.24,0,0,0-4.35,0c-2.12.88-2.55,2.8-4.35,5.54-.89,1.35-3.15,4.79-6.53,6.64s-6.68,1.5-10.88,1.11c-3.17-.3-5.81-.55-8.71-2.22s-3.62-3.37-5.44-3.32c-2.17.06-3.19,2.55-5.44,5.54A37.72,37.72,0,0,1,1221.78,917c-3.2,1.58-5.91,2.92-9.8,3.33-2.71.28-5.77.08-10.88,1.1-2.29.46-3.93.95-4.35,2.22s.62,2.74,1.09,3.32a17.4,17.4,0,0,0,4.35,2.22c16.87,5.74,37.06-17.45,39.17-19.94a26.3,26.3,0,0,0,19.59,5.54c11.74-1.61,17.69-10.88,18.5-12.18a66,66,0,0,0,23.94,21c5.54,2.83,16.46,8.23,30.46,6.64a19.55,19.55,0,0,0,9.8-2.21,4.92,4.92,0,0,0,2.17-2.22,3.47,3.47,0,0,0,0-3.32C1345.1,921.51,1343.56,921.47,1342.56,921.45Z" transform="translate(-655.07 -59.93)"/><path class="cls-2" d="M1215.17,384.89c2.81-.66,6.93-1.54,12-2.21,3.51-.47,7.67-.87,18.5-1.11,6.89-.15,13.57-.29,22.85,0,13.11.41,17.19,1.22,20.68,2.22a36.41,36.41,0,0,1,12,5.53,41,41,0,0,1,7.61,7.76,61.68,61.68,0,0,1,5.44,7.75,77.06,77.06,0,0,1,4.36,8.86c.89,2,1.67,3.91,2.25,5.32.23,1.52,1,4.55,3.19,5.75a4.42,4.42,0,0,0,4.35,0c1.62-1,2-3,2.17-4.43.39-2.45.25-5.79-2.17-11.07-1.19-2.59-2-3.73-5.44-8.86-6.1-9.21-5.33-8.52-6.53-10-3.82-4.6-7.8-6.91-13.06-10a64.1,64.1,0,0,0-15.23-6.64c-2.37-.67-6.64-1.71-19.59-2.22-4.69-.18-9.64-.39-15.68-.27-.9,0-4,.08-7.17.27-5.25.32-9.6.77-19.58,2.22-7.62,1.11-14.59,1.17-16.33,4.43-.07.14-1.74,3.38,0,5.54A4.89,4.89,0,0,0,1215.17,384.89Z" transform="translate(-655.07 -59.93)"/><path class="cls-2" d="M1242.91,348.51c13.34-.93,23.26-1.72,29.38-2.22,8.52-.69,14-1.19,21.76,0a58.2,58.2,0,0,1,15.24,4.43,44.82,44.82,0,0,1,10.88,6.65,61.77,61.77,0,0,1,6.53,6.64,34.49,34.49,0,0,1,7.61,12.19c.94,2.53,1,3.55,2.18,5.53,1,1.62,1.74,2.87,3.26,3.33a4.53,4.53,0,0,0,4.36-1.11c1.45-1.47,1.26-3.64,1.08-5.54-.09-1.08-.35-2.51-2.17-6.64a60.88,60.88,0,0,0-3.27-6.65,59.07,59.07,0,0,0-5.44-7.75,65.54,65.54,0,0,0-7.61-7.75c-3.76-3.27-6.58-5.73-10.89-7.76-3-1.39-6-2-12-3.32a104.83,104.83,0,0,0-13.06-2.21c-5.62-.54-6.08,0-17.41,0-10.33,0-10.5-.48-15.24,0a114.59,114.59,0,0,0-13.05,2.21c-1.78.42-3.27.81-4.36,1.11a6,6,0,0,0,2.18,8.86Z" transform="translate(-655.07 -59.93)"/><path class="cls-2" d="M1078,914.89c-1.56-.68-3.78.21-5.44,2.22a18.82,18.82,0,0,1-3.27,8.86,19.71,19.71,0,0,1-8.7,6.64,23.42,23.42,0,0,1-13.06,2.22,28.31,28.31,0,0,1-10.88-3.32c-5.53-2.78-8.29-5.27-9.79-7.76-1.18-1.94-1.5-3.79-3.27-4.43a4.25,4.25,0,0,0-4.35,1.11,4.77,4.77,0,0,0-1.09,3.32c0,1.63.59,3.31,3.26,6.65,2.32,2.89,6,4.77,8.71,6.64,3.21,2.24,4,3,9.79,4.43,6.11,1.52,9.17,2.27,13.06,2.22a29.46,29.46,0,0,0,14.15-3.32,27.44,27.44,0,0,0,9.79-8.86,23,23,0,0,0,3.26-7.76,10.66,10.66,0,0,0,0-5.53C1079.88,917.15,1079.38,915.5,1078,914.89Z" transform="translate(-655.07 -59.93)"/><path class="cls-2" d="M1031,664.24c1.62.08,5.09,2.27,12,6.65a102.65,102.65,0,0,1,9.79,6.64c4.18,3.52,6.27,5.27,6.53,5.54,1.29,1.34,2.35,2.63,4.35,3.32a5.53,5.53,0,0,0,4.35,0,4.84,4.84,0,0,0,2.18-2.21,5.81,5.81,0,0,0,0-4.43c-.37-1.13-1.07-2.44-3.26-4.43s-3.4-2.46-6.53-4.43c-4-2.52-3.19-2.4-6.53-4.43-3-1.81-4.27-2.28-7.62-4.43-1.41-.91-2.53-1.69-3.26-2.22a146.37,146.37,0,0,0,15.23-2.21A128.82,128.82,0,0,0,1081,651c7.56-3,12.47-5.06,17.41-10s6.22-8.94,6.53-10c.41-1.36,2-6.74,0-12.18-3.32-8.83-13.89-11.35-17.41-12.18-11.25-2.68-20.66,1.73-23.94,3.32-6,2.91-9.8,6.74-17.41,14.39a152.58,152.58,0,0,0-10.88,12.19,29.09,29.09,0,0,0-2.18-12.19c-1.47-3.53-3.51-8.43-8.7-11.07a16.2,16.2,0,0,0-16.32,1.11c-4.39,3.07-5.8,7.62-6.53,10a20.77,20.77,0,0,0,0,13.29c1.59,4.27,5.44,7.34,13.06,13.29,3.08,2.42,5.74,4.28,7.61,5.54-2.83,1.68-6.54,3.93-10.88,6.65s-6.92,4.42-8.7,7.75a7.82,7.82,0,0,0-1.09,5.54c.15.72.56,2.62,2.17,3.32s3.32-.44,4.36-1.11c5.19-3.35,8-6.56,10.88-8.86S1026.08,664,1031,664.24Zm38.92-43.38c8.7-2.22,23.93-7.75,23.93,2.21,2.18,23.26-35.9,21-54.4,28.8C1044.84,638.58,1055.72,626.4,1069.87,620.86Zm-54.41,3.32c10.88-4.43,12,15.51,12,25.47h-1.09C1017.64,645.22,1002.4,629.72,1015.46,624.18Z" transform="translate(-655.07 -59.93)"/><path class="cls-2" d="M958.84,856.49c-2-1.31-4.64-.32-5.44,0l-2.17,3.33a61.79,61.79,0,0,1-1.09,19.93,62.49,62.49,0,0,1-7.62,18.83c-15.24,26-46,39.08-47.87,39.87-15.69,6.46-32.33,8.86-43.53,7.75-11.4-1.13-17.1-1.69-20.67-3.32-3.27-1.5-7.2-3.9-9.8-2.22-1.69,1.1-2.34,3.62-2.17,5.54.25,2.84,2.32,4.7,3.26,5.54,6.77,6.06,36.24,6.61,38.09,6.64,26-.6,42-9.09,50-14.4,4.69-3.1,8.37-6.27,15.23-12.18,14.21-12.23,21.31-18.35,27.21-28.79,5.32-9.45,6.87-17.28,8.7-26.58,0,0,.89-4.53,0-14.4C960.82,859.83,960.52,857.62,958.84,856.49Z" transform="translate(-655.07 -59.93)"/><path class="cls-2" d="M1183.85,703.7a7.63,7.63,0,0,0-3.26,0c-2.67.41-4.76.93-5.44,1.1l-4.36,1.11c-7.77,2.14-42.57,6.12-45.7,14.4a20.89,20.89,0,0,0-1.09,4.43c-.23,2.12.12,2.53,0,5.53-.15,4-.83,5.14-1.08,5.54a8.39,8.39,0,0,1-2.18,2.22,13.94,13.94,0,0,1-4.35,2.21,34.59,34.59,0,0,1-5.44,1.11,38,38,0,0,0-6.53,2.21,81.25,81.25,0,0,0-9.79,4.43c-3.87,2.14-6.57,4.38-12,8.86a55.59,55.59,0,0,0-12,13.29c-.79,1.31-1.83,3.19-1.09,4.43a3.15,3.15,0,0,0,4.35,1.11c1.24-.91,3.19-2.41,5.44-4.43,5.7-5.12,6.55-7.52,12-12.18a53,53,0,0,1,7.62-5.54,44,44,0,0,1,9.79-4.43c3.78-1.16,3.92-.59,9.79-2.21,3.39-.94,5.48-1.72,7.62-3.33a13.38,13.38,0,0,0,3.26-3.32,10.42,10.42,0,0,0,2.18-6.64c-.19-2.22-1.22-2.47-1.09-4.43a7.38,7.38,0,0,1,2.18-4.43,11.7,11.7,0,0,1,6.53-3.33c7.28-1.34,14.42-3.45,21.76-4.43a84.73,84.73,0,0,0,20.67-5.53,7.3,7.3,0,0,0,4.36-2.22,3.34,3.34,0,0,0,1.08-2.21,3.24,3.24,0,0,0-1.08-2.22A4.42,4.42,0,0,0,1183.85,703.7Z" transform="translate(-655.07 -59.93)"/><path class="cls-2" d="M982.27,918.22c-4.46-.31-8.55,4.34-7.61,8.86a7.18,7.18,0,1,0,7.61-8.86Z" transform="translate(-655.07 -59.93)"/><path class="cls-2" d="M947.45,950.33c-3.75.51-6.31,4.2-6.53,7.76-.24,4.08,2.57,8.33,6.53,8.86,4.57.6,9-4,8.71-8.86C955.89,953.68,951.81,949.74,947.45,950.33Z" transform="translate(-655.07 -59.93)"/><path class="cls-2" d="M1075.85,722.19c-.27,3.79,2.64,7.76,6.53,7.76s6.8-4,6.53-7.76c-.24-3.29-2.89-6.64-6.53-6.64S1076.08,718.9,1075.85,722.19Z" transform="translate(-655.07 -59.93)"/><path class="cls-2" d="M1109.58,703.37c3.48.29,6.53-3.06,6.53-6.65s-3-6.94-6.53-6.64c-3.19.27-5.44,3.51-5.44,6.64S1106.39,703.09,1109.58,703.37Z" transform="translate(-655.07 -59.93)"/><path class="cls-2" d="M1378.34,387.74a7.37,7.37,0,0,0-7.61,7.75,7.23,7.23,0,0,0,6.53,6.64,7.36,7.36,0,0,0,7.61-7.75A7.23,7.23,0,0,0,1378.34,387.74Z" transform="translate(-655.07 -59.93)"/><path class="cls-2" d="M1411,339c-3.51-.55-7.35,2.08-7.62,5.53-.29,3.77,3.76,7.26,7.62,6.65a6.5,6.5,0,0,0,5.44-6.65A6.43,6.43,0,0,0,1411,339Z" transform="translate(-655.07 -59.93)"/><path class="cls-2" d="M1370.73,326.82c3.62,0,7.61-2.8,7.61-6.64s-4-6.64-7.61-6.64-7.62,2.8-7.62,6.64S1367.11,326.82,1370.73,326.82Z" transform="translate(-655.07 -59.93)"/><path class="cls-2" d="M1133.52,358.94a8.31,8.31,0,1,0-8.7-7.75A8.33,8.33,0,0,0,1133.52,358.94Z" transform="translate(-655.07 -59.93)"/><path class="cls-2" d="M1145.49,324.61c4.51,0,7.89-4.49,7.62-8.86-.25-3.88-3.37-7.75-7.62-7.75s-7.38,3.87-7.62,7.75C1137.6,320.12,1141,324.61,1145.49,324.61Z" transform="translate(-655.07 -59.93)"/><ellipse class="cls-2" cx="514.35" cy="277.97" rx="7.62" ry="7.75"/><path class="cls-2" d="M1096.52,331.25c3.48.3,6.53-3.06,6.53-6.64s-3-6.94-6.53-6.65c-3.18.28-5.44,3.52-5.44,6.65S1093.34,331,1096.52,331.25Z" transform="translate(-655.07 -59.93)"/><path class="cls-2" d="M1024.71,323.5a37,37,0,0,1,12,6.65,39.24,39.24,0,0,1,7.62,8.86,26.48,26.48,0,0,1,3.26,6.64,29.45,29.45,0,0,1,1.09,7.75c.18,3.49-.2,3,0,6.65.17,3.12.5,4.45,0,6.64a11.94,11.94,0,0,1-1.09,3.33c-.68,1.25-1.25,1.63-1.09,2.21.25.88,1.94,1.33,3.27,1.11a4.44,4.44,0,0,0,2.17-1.11c1-.92,1.56-2.09,2.18-4.43a36.68,36.68,0,0,0,1.09-5.54,69.18,69.18,0,0,0,0-11.07c-.73-7.59-1.1-11.38-2.18-14.4-3.31-9.21-11.17-14.09-15.23-16.61-9-5.56-17.4-6.22-22.85-6.64-7.22-.57-15-1.17-22.85,3.32-4.49,2.57-7.34,5.87-10.89,10-5.37,6.22-7.06,10.62-7.61,12.19a30.49,30.49,0,0,0-1.09,10,5,5,0,0,0,1.09,3.33,3,3,0,0,0,2.17,1.1,2.44,2.44,0,0,0,2.18-1.1,2.52,2.52,0,0,0,0-2.22,35.66,35.66,0,0,1,3.26-10,37.44,37.44,0,0,1,4.36-6.64,36.76,36.76,0,0,1,6.53-6.65,29.82,29.82,0,0,1,14.14-5.53A37.12,37.12,0,0,1,1024.71,323.5Z" transform="translate(-655.07 -59.93)"/><path class="cls-2" d="M784.24,741c-1.19-2.39-3-4.92-6.53-10A104.1,104.1,0,0,0,769,720c-2-2.19-3.5-3.6-4.35-4.43-3.38-3.29-11.39-11.07-16.32-21a55.18,55.18,0,0,1-5.44-24.37c.05-5.4.11-12.45,4.35-19.93a33.69,33.69,0,0,1,12-12.18c.12-.15,1.87-2.27,1.09-4.43a4.05,4.05,0,0,0-2.18-2.22c-3.24-1.37-7.78,2.65-9.79,4.43a39.24,39.24,0,0,0-10.88,16.61c-1.72,5.21-1.92,9.24-2.18,14.4s-.68,13.65,2.18,23.26c2.15,7.23,5.15,11.79,9.79,18.82,5,7.56,6.67,8.4,18.5,23.26,8.51,10.69,11.28,14.83,13.06,21,2.55,8.94.68,13.91,0,15.51a17.72,17.72,0,0,1-6.53,7.75c-4.63,3-11.42,4.08-16.32,1.11-1.65-1-2.92-2.51-5.44-5.54s-3.09-4.53-3.27-5.54c-.09-.54-.63-3.61,1.09-5.53.72-.81,1.27-.77,5.44-2.22,3.46-1.2,4-1.55,4.35-2.21A4.13,4.13,0,0,0,757,752.1c-.41-.4-1.4-1.17-4.35-1.11-2.57,0-6.7.14-9.79,3.32-2.5,2.58-2.88,5.7-3.27,8.86-.29,2.45-.75,6.21,1.09,10,1.25,2.53,3.85,4.16,8.71,7.75,4,2.93,6.21,4.58,9.79,5.54A24.74,24.74,0,0,0,781,780.89c4.18-4.06,5.4-8.84,6.53-13.29a37.6,37.6,0,0,0,1.09-12.18A38,38,0,0,0,784.24,741Z" transform="translate(-655.07 -59.93)"/><path class="cls-2" d="M951.81,409.89c-4.53-3.08-13.14-9-23.94-11.08-3.6-.69-16.65-2.95-29.38,1.11,0,0-8.11,2.59-10.88,7.75a9.87,9.87,0,0,0-1.09,4.43c0,1.06.06,2.64,1.09,3.32s2.84.27,4.35-1.1a39.16,39.16,0,0,1,15.23-6.65c7.5-1.46,13.41-.29,19.59,1.11,5.29,1.2,10,2.16,15.23,5.54,3.09,2,7.32,4.69,9.8,10,1.54,3.3,1.78,6.28,2.17,11.08a55,55,0,0,1,0,11.07c-.43,4-1.09,5.68,0,7.75.89,1.69,3.06,3.87,5.44,3.33,1.25-.29,2.3-1.33,3.27-3.33,4.85-10,1.08-24.36,1.08-24.36C962.14,423.6,955.07,412.1,951.81,409.89Z" transform="translate(-655.07 -59.93)"/></g><g id="Camada_3" data-name="Camada 3"><path class="cls-2" d="M1160.66,883.09c-2.4.66-4.23.51-7,.53s-9.87-.69-12.25-11.35,4.6-39.21-9.25-38.93c0,0,21.2-14.21,19.23-34-1.14-11.42-8.21-16.66-14-19.05a21.67,21.67,0,0,0-12.78-1.14c-10.5,2.23-33.56,9.38-47.77,34.89-.54,0-4,8.73.42,10.74s11.28-6.86,11.28-6.86c0,.83,5.1,82.54,5.1,82.54s.27,5.79,8.07,5.43,8-8.91,8-8.91l-4.22-51.41a99.63,99.63,0,0,0,11.22-2.44c2.62-.81,6,5.14,7.09,8.4a84.39,84.39,0,0,1,3,13.52c.66,4.4,2.66,16.13,2.66,16.13s.88,6.86,5.63,10.5,13.09,3.82,19.27,3.27,8.3-1.4,9.83-2c2.38-.94,5.28-2.6,3.62-7.1C1166.37,881.8,1163.06,882.43,1160.66,883.09Zm-56.1-52.49c-1.1-.37-2.36-25.14-2.36-25.14.4,0,13.84-8.47,19.86-11.12s9.69-.57,11.51,1c4.9,4.22,1.35,11.76-.29,14.22C1129.49,815.25,1118.16,824.18,1104.56,830.6Z" transform="translate(-655.07 -59.93)"/><path class="cls-2" d="M1223,877.09c-2.34,1.07-19.93,9.79-29.21-13.87-.33-.76-4.92-18.37-6.87-26.56-.45-1.87.34-3.65,1.68-3.83,4.69-.63,14.58-2.42,17-4.23a1.58,1.58,0,0,1,.85-.31c1.5-.15,6.21-2.95,3.89-16-2.55-14.33-13.59-9.26-15-8.56l-.33.12-12,3c-1.19.29-2.45-.83-2.84-2.53-1.55-6.73-5.17-23-6.28-32.23-.37-3.11,1.15-5.72,3.36-5.8,6.91-.24,20.46-6.34,21.56-9.78.33.6,10.29-17.29-4-21.32.06.32-31.6-6.54-42.67,12.86-.41.7,15.54,101.45,26.68,131.21,5.71,15.25,20.56,26.09,29.83,25.1s19.8-7.3,23.48-12.56,4.7-8.56,2.23-14.7S1225.37,876,1223,877.09Z" transform="translate(-655.07 -59.93)"/><path class="cls-2" d="M980.19,773.39c-2.69.64-22.94,6-29.28-13.85-.23-.64-2.45-15.21-3.29-22a2.54,2.54,0,0,1,2.39-2.92c5.15-.07,16-.58,18.91-1.82a2.48,2.48,0,0,1,1-.17c1.63,0,7.13-1.79,6.64-12.5-.53-11.75-13.18-8.7-14.77-8.27a1.72,1.72,0,0,1-.37.07L948,713.23a2.52,2.52,0,0,1-2.68-2.3c-.62-5.54-2-18.91-1.78-26.46a4.37,4.37,0,0,1,4.51-4.35c7.46.45,23-3.19,24.68-5.85.27.51,13.74-12.93-1-17.49,0,.26-33-8.19-47.87,6.36-.54.53,1.09,82.91,8.49,107.84,3.79,12.79,18.07,22.87,28.2,22.93s22.41-4,27.18-7.91,6.37-6.44,4.65-11.59S982.87,772.74,980.19,773.39Z" transform="translate(-655.07 -59.93)"/><path class="cls-2" d="M887.85,774.86c-22.19-20.39-63.16-46.22-65.18-47.34-25.62-14.2-26.15-29.9-26-39.42.14-11.37,6.77-22.51,15.09-28,17.34-11.34,49.32-2.67,76.95,25.12a10.53,10.53,0,0,0,13.82,1.14l.11-.09c5.25-4.13,5.39-11,5.45-13.58.22-11.12-7.82-19.45-12.62-24.27-2.81-2.83-15.83-15.41-38.49-20.07-30.41-6.26-54.56,3.08-59.5,5.81-6.87,3.79-34.54,15-36.27,47-.62,11.5,5.82,20.77,9,25.65,7.88,11.92,24.5,23,36.24,30.55,1.3,1,14.29,10.05,38.34,33.7,16.31,16,27.77,24.71,34.5,42.3,4,10.47,13,34,.63,53.9-.5.81-11.57,18.07-31.78,20.84-10.41,1.43-18.36-1.66-29.36-5.94-9.27-3.6-18.85-7.33-26.22-17-2.85-3.74-11.68-14.26-8.68-24.3.24-.79,1.9-8.19,8.12-11.27,2.93-1.45,7.91-4.3,18-3.78,15.39.8,15.22,2.78,18.51,3.78,5.6,1.72,16.82,3.23,4.17-14.73a33.54,33.54,0,0,0-14.16-11.7c-2.67-1.32-13.29-6.33-29.41-.26a42.89,42.89,0,0,0-21.55,19.16c-10.12,19.15-.76,40.52,1.51,46.59,15.82,42.33,73,64.93,113.15,49.4,4-1.55,25.81-10,36.12-31.94,8.67-18.46,11.11-41.48,7.09-57.29C918.44,801.35,894.21,780.71,887.85,774.86Z" transform="translate(-655.07 -59.93)"/><path class="cls-2" d="M1369.45,858c-3.36-16.08-14.54-28.22-17.48-31.66-10.25-12-29.11-27.25-30-27.91-11.78-8.41-12.12-17.55-12.12-23.08,0-6.62,3-13.07,6.74-16.18,7.85-6.5,22.51-1.27,35.29,15,1.71,2.19,4.43,2.58,6.31.74l.06,0c2.37-2.37,2.4-6.36,2.41-7.87,0-6.47-3.68-11.36-5.9-14.19A34.92,34.92,0,0,0,1337,741c-13.93-3.81-24.9,1.48-27.14,3-3.12,2.17-15.7,8.52-16.3,27.15-.22,6.69,2.78,12.12,4.27,15,3.67,7,11.32,13.51,16.73,18,.6.58,6.59,5.93,17.71,19.83,7.53,9.42,12.82,14.53,16,24.8,1.89,6.11,6.13,19.83.6,31.37-.22.46-5.19,10.44-14.4,11.94-4.74.77-8.39-1.08-13.44-3.62-4.26-2.16-8.66-4.38-12.08-10-1.32-2.19-5.41-8.36-4.1-14.19.1-.45.82-4.75,3.65-6.51a11.69,11.69,0,0,1,8.2-2.09c7,.55,7,1.7,8.47,2.3,2.58,1,7.71,2,1.83-8.55a17.32,17.32,0,0,0-6.54-6.89c-1.22-.78-6.1-3.75-13.43-.31a20.82,20.82,0,0,0-9.74,11c-4.51,11.09-.11,23.57,1,27.12,7.47,24.72,33.72,38.19,52,29.38a32.42,32.42,0,0,0,16.32-18.37C1370.39,880.63,1371.38,867.25,1369.45,858Z" transform="translate(-655.07 -59.93)"/><path class="cls-2" d="M1067.82,854.87c-.76-1-3.66-7.21-8.37-5.42s-3.58,8.38-3.61,9.34c-.17,6.15,2.51,7.85,2,12.39-.54,4.89-4.35,9.35-8.76,9.8-5,.53-9.29-4.36-12.55-8.12-6.81-7.84-9.81-16.67-11.51-22.33s-5.58-19.73-6.87-45.87a187.26,187.26,0,0,1,3.07-41.79c1-5,2.57-11.61,7.62-14.33.7-.37,5-2.6,9.52-.26,4.72,2.46,4.32,7.23,9.43,10.77,3.26,2.27,8.38,3.76,11.61,1.1s3.09-8.32,3-11.19c-.28-10.61-6.56-18.73-8-20.63-.64-.85-9.9-12.92-23.14-13.22-11.63-.26-18.58,8.74-22.16,13.38-10.48,13.58-11.38,30.68-12.29,48.08-1,18.55,1.17,32.37,4.22,52,4.44,28.65,9.72,42,11.89,47.08,8.25,19.57,15.89,26.22,18.38,28.24,3.58,2.91,12.62,10.25,22.79,8,8.63-1.88,13-9.55,14.8-12.6,5.47-9.5,5-19.75,4.71-24.38C1073.38,869.85,1073,861.51,1067.82,854.87Z" transform="translate(-655.07 -59.93)"/><path class="cls-2" d="M1257.75,768.11c-7.23-20.28-16.66-49-26-85.26,52.25-7,80.53-9,91.69-7.28,1.94.29,9.73,1.64,15.33-3,2.75-2.3,5.52-6.52,4.68-10.33-1.1-5-7.84-7.16-10.67-8.09-19.11-6.22-89.44,5.37-104.19,7.85-.62-5.2-2.59-15.41-9.91-23.69a28.93,28.93,0,0,0-8.4-6.62c-1.13-.58-10.78-5.43-14.07-1.7-1.59,1.81-1,4.88-.34,8.58,1,5.39,2.91,7.9,5,13a58.39,58.39,0,0,1,3.51,12.3,318.92,318.92,0,0,1-35.62,5.9,185.44,185.44,0,0,0-22.11,3.73c-7.93,1.92-8.31,6.42-8.49,7.4-.79,4.08,2.76,7.84,3.32,8.41,4.51,4.61,11.59,4,21.28,2.35,15.62-1.75,30.65-4.45,46.28-6.19a702.31,702.31,0,0,1,18.54,84c5.75,36.88,8.62,55.32,8.18,66.6-.13,3.36.85,12.06,2.81,29.47.65,5.69,1.31,10.94,5.12,15.34,4.1,4.73,9.72,6,12.81,6.43,4.1-.18,10.57-1.2,15.18-6.15,7.18-7.71,5.56-20.39,4.68-26.69C1268.49,798.26,1257.75,768.11,1257.75,768.11Z" transform="translate(-655.07 -59.93)"/></g><g id="Camada_2" data-name="Camada 2"><path class="cls-3" d="M838.47,426.87c-25.85-13.25-67.25,3.82-67.25,3.82s1.34-50.06,4.66-54.48,1.44,1.62,22.15,6.39,73.08,10.33,96.09-7.29,28.32-20.89,36.33-35.78-7.28-15.76-12.58-12.49S898.34,346.39,889.49,349s-20,10.62-65.65,2.89-60.37-9.08-75-4.29c-36.75,12.06-46,44.43-45.31,49.59s8.05,17.42,11.92,6.31c2.45-7,12.91-28.93,34.9-28.7,0,0-2.21,33.08-1.6,67.16a50.63,50.63,0,0,0-26.86,36.61c-5.26,29.38,6.31,6,13.26.76,5.44-4.09,9.69-9.18,14.72-11.25.05.62.09,1.25.14,1.87,3.28,41.12,8.64,117.15,17.47,123.8s22.83,3.35,24.06-.16-4.43-12-4.43-12S777.08,533.87,775,507.15a396,396,0,0,1-.85-47.63A173.61,173.61,0,0,1,806,457.25c16.86.45,33.15,1.9,35.75,1S864.31,440.12,838.47,426.87Z" transform="translate(-655.07 -59.93)"/><path class="cls-3" d="M941.87,570.9c-3,1-8.57,1.23-9.79,1.23-3.46,0-7.7-.74-11.38-12.91s3.22-45.88-14.17-44.44c0,0,25.73-18.18,22-41-2.18-13.16-9.94-21.3-17.21-24-9.78-3.67-19.57-1.23-26.91,2.44-12.07,6-32.42,13.86-48.62,44.59-.68.07-4.45,10.45,1.23,12.43s13.74-8.86,13.74-8.86c.1.95,11.79,95.38,11.79,95.38s.71,6.68,10.5,5.65,9.42-11,9.42-11l-8.66-59.32a135.28,135.28,0,0,0,14-3.72c3.25-1.15,7.88,5.48,9.46,9.18A91.62,91.62,0,0,1,901.89,552c1.11,5,4.39,18.5,4.39,18.5s1.55,7.88,7.77,11.74,16.7,3.38,24.43,2.24,6.41-.56,8.28-1.37c2.94-1.28,8.5-4.7,6.12-9.79C950.73,568.75,944.84,569.94,941.87,570.9ZM871.6,513.8c-1.4-.33-4.6-29-4.6-29,.51-.06,16.85-10.93,24.25-14.48s12.13-1.45,14.53.23c6.43,4.5,2.45,13.54.55,16.53C901.94,494,888.28,505.27,871.6,513.8Z" transform="translate(-655.07 -59.93)"/><path class="cls-3" d="M1000.88,549.77c-4.7-1-6.38,2.61-9.56,2.34-3.69-2.3-2.83-9.93-2.2-14.47s11.49-63.79,24.2-108c-4-26-23.67-7.63-21.9-6.19,0,0-29.51,119.13-28.22,138.38,1.21.34-3.12,16.42,7.63,24.49,5.46,2.17,25.21,5.23,30.41-2.43,6.22-10.51,7.53-20.53,6.91-24.48S1005.59,550.79,1000.88,549.77Z" transform="translate(-655.07 -59.93)"/><path class="cls-3" d="M1018.16,374s19.39.86,20.25-18.54-22.72-18.7-22.72-18.7-19.89-1.14-20,18.81S1018.16,374,1018.16,374Z" transform="translate(-655.07 -59.93)"/><path class="cls-3" d="M1080.41,559.11c-2.78.35-23.78,3.49-28.16-16.45-.17-.65-.93-15-1.09-21.68a2.52,2.52,0,0,1,2.72-2.6c5.2.46,16.26,1.08,19.28.17a2.37,2.37,0,0,1,1-.07c1.65.19,7.39-1,8-11.46.65-11.47-12.43-9.8-14.09-9.55a2.34,2.34,0,0,1-.38,0l-13.66-.14a2.5,2.5,0,0,1-2.46-2.5c-.07-5.45-.11-18.59.89-25.89a4.37,4.37,0,0,1,5-3.76c7.5,1.19,23.53-.76,25.53-3.17.22.52,15.19-11.15.73-17.1,0,.26-32.47-11.33-49,1.29-.6.46-7.35,80.66-2.42,105.64,2.53,12.81,15.93,24.07,26.15,25.16s23-1.62,28.25-4.9,7.1-5.61,5.89-10.79S1083.19,558.75,1080.41,559.11Z" transform="translate(-655.07 -59.93)"/><path class="cls-3" d="M1169.27,393.77c.14,7.86,8.15,117.22,4.3,131.33.36,1.11-34.81-83.63-41.41-111-3.49-24.64-14-20.53-14-20.53s-5.75,2.34-6.23,14.14c0,0,3.69,135.27,13.39,184.52s18.33,16,17.46,5.31-7.33-109.37-7.37-111.62,35.53,105,35.53,105,5,16.76,15.24,14.9,10.93-18.16,10.8-25.45-3.16-163.92-12-185.66S1169.14,385.91,1169.27,393.77Z" transform="translate(-655.07 -59.93)"/><path class="cls-3" d="M1267.57,417.48c-21.88-2.77-32.74-1.56-38.13.27a4.05,4.05,0,0,0-1.49,7.1l5,4.18a4.12,4.12,0,0,1,1.54,3c.47,11.37,2.93,74,.47,87.14.92-.35-2.93,6.79-21.29,1.43a5,5,0,0,0-5,1.14c-2.59,2.81,1.66,5.69,5,8,4,2.73,52.78,20.91,82.67,0a5.29,5.29,0,0,0,.76-.66c14.92-15.78,17.45-31.86,17-48.53S1310,422.84,1267.57,417.48Zm-5.12,98.79c-3.46,1.3-7.24-1.32-6.63-4.64,3.36-18.27,1-56.28-.06-71.13-.22-3.13,3.29-5.37,6.53-4.15C1272,440,1288.55,450,1290,475.78,1291.51,501.08,1273.63,512,1262.45,516.27Z" transform="translate(-655.07 -59.93)"/><path class="cls-3" d="M1397.83,557.79c-2.17-14.52-13.65-26.4-16.64-29.74-10.42-11.65-30.3-27.09-31.29-27.77-12.53-8.65-12-16.74-11.41-21.62a18.25,18.25,0,0,1,9.32-13.54c9.59-4.9,25.72,1.25,38.57,17a5.52,5.52,0,0,0,7.11,1.32l.06,0c3-1.84,3.38-5.35,3.55-6.68.71-5.69-3-10.39-5.26-13.13A39.91,39.91,0,0,0,1373,451.23c-15.45-4.83-28.46-1.33-31.17-.19-3.77,1.59-18.72,5.85-21.31,22.21-.94,5.87,1.91,11,3.33,13.65,3.45,6.53,11.48,13.09,17.17,17.6.62.58,6.88,5.92,18.1,19.34,7.6,9.1,13.09,14.16,15.64,23.55,1.52,5.58,4.94,18.12-2.54,27.7-.3.39-7,8.66-17.58,9-5.48.17-9.44-1.84-14.92-4.61-4.62-2.35-9.39-4.77-12.7-10.12-1.28-2.07-5.3-7.94-3.21-12.93.17-.4,1.42-4.11,4.82-5.36a16.5,16.5,0,0,1,9.54-1c7.93,1.23,7.74,2.24,9.39,2.93,2.82,1.17,8.56,2.55,3-7.34a17.5,17.5,0,0,0-6.72-6.77c-1.32-.81-6.56-3.95-15.24-1.69a22.3,22.3,0,0,0-12.2,8.69c-6.26,9.29-2.54,20.76-1.69,24,6,22.57,34.43,37.21,56.06,31.38,2.17-.59,13.92-3.76,20.44-14.48C1396.58,577.8,1399.07,566.11,1397.83,557.79Z" transform="translate(-655.07 -59.93)"/></g></svg>